<svg width="32" height="32" viewBox="0 0 32 32" fill="none" xmlns="http://www.w3.org/2000/svg">
<path fill-rule="evenodd" clip-rule="evenodd" d="M9.4855 3.14241C9.95908 2.85827 10.5733 3.01183 10.8575 3.48541L13.5662 7.99991H18.4338L21.1425 3.48541C21.4267 3.01183 22.0409 2.85827 22.5145 3.14241C22.9881 3.42656 23.1416 4.04082 22.8575 4.5144L20.7662 7.99991H24C26.2091 7.99991 28 9.79077 28 11.9999V22.9999C28 25.2091 26.2091 26.9999 24 26.9999H8C5.79086 26.9999 4 25.2091 4 22.9999V11.9999C4 9.79077 5.79086 7.99991 8 7.99991H11.2338L9.14251 4.5144C8.85836 4.04082 9.01192 3.42656 9.4855 3.14241ZM19.2 16.4607C20 16.9226 20 18.0773 19.2 18.5391L15.3 20.7908C14.5 21.2527 13.5 20.6753 13.5 19.7516V15.2482C13.5 14.3245 14.5 13.7471 15.3 14.209L19.2 16.4607Z" fill="#CFD4E6"/>
</svg>
