<svg width="32" height="32" viewBox="0 0 32 32" fill="none" xmlns="http://www.w3.org/2000/svg">
<path fill-rule="evenodd" clip-rule="evenodd" d="M10.8575 3.48541C10.5733 3.01183 9.95908 2.85827 9.4855 3.14241C9.01192 3.42656 8.85836 4.04082 9.14251 4.5144L11.2338 7.99991H8C5.79086 7.99991 4 9.79077 4 11.9999V22.9999C4 25.209 5.79086 26.9999 8 26.9999H24C26.2091 26.9999 28 25.209 28 22.9999V11.9999C28 9.79077 26.2091 7.99991 24 7.99991H20.7662L22.8575 4.5144C23.1416 4.04082 22.9881 3.42656 22.5145 3.14241C22.0409 2.85827 21.4267 3.01183 21.1425 3.48541L18.4338 7.99991H13.5662L10.8575 3.48541ZM19.0164 9.99991C19.0049 10.0001 18.9933 10.0001 18.9817 9.99991H13.0183C13.0067 10.0001 12.9951 10.0001 12.9836 9.99991H8C6.89543 9.99991 6 10.8953 6 11.9999V22.9999C6 24.1045 6.89543 24.9999 8 24.9999H24C25.1046 24.9999 26 24.1045 26 22.9999V11.9999C26 10.8953 25.1046 9.99991 24 9.99991H19.0164ZM19.2 18.5392C20 18.0774 20 16.9226 19.2 16.4608L15.3 14.2091C14.5 13.7472 13.5 14.3246 13.5 15.2483V19.7517C13.5 20.6754 14.5 21.2528 15.3 20.7909L19.2 18.5392Z" fill="#FF2E2E"/>
</svg>
